<svg xmlns="http://www.w3.org/2000/svg" viewBox="0 -0.5 32 32" shape-rendering="crispEdges">
<metadata>Made with Pixels to Svg https://codepen.io/shshaw/pen/XbxvNj</metadata>
<path stroke="#000000" d="M13 1h7M10 2h3M20 2h4M8 3h3M22 3h3M6 4h4M23 4h3M5 5h3M25 5h2M4 6h2M26 6h2M4 7h1M27 7h2M3 8h2M28 8h1M3 9h1M28 9h2M2 10h2M11 10h10M29 10h1M2 11h1M10 11h3M19 11h3M29 11h1M1 12h2M10 12h1M21 12h1M29 12h2M1 13h1M9 13h2M21 13h2M30 13h1M1 14h1M9 14h1M22 14h1M30 14h1M1 15h1M9 15h1M22 15h1M30 15h1M1 16h1M9 16h1M22 16h1M30 16h1M1 17h1M9 17h1M22 17h1M30 17h1M1 18h1M9 18h2M22 18h1M30 18h1M1 19h1M10 19h1M21 19h2M30 19h1M1 20h2M10 20h2M20 20h2M30 20h1M2 21h1M11 21h3M18 21h3M29 21h2M2 22h2M12 22h8M29 22h1M4 23h1M28 23h2M4 24h1M28 24h1M5 25h1M27 25h2M5 26h2M25 26h3M6 27h2M24 27h2M7 28h3M22 28h3M9 29h4M18 29h5M12 30h7" />
<path stroke="#d5000d" d="M13 2h7M11 3h1M20 3h2M22 4h1M13 8h6M2 16h1M2 17h1M2 18h1M8 18h1M2 19h1M3 20h1M22 20h1M28 20h1M3 21h1M21 21h1M28 21h1M4 22h1M27 22h1M5 24h1M6 25h1M25 25h1M7 26h1M24 26h1M22 27h2" />
<path stroke="#f10011" d="M12 3h8M12 4h10M12 5h10M12 6h10M13 7h8M19 8h2M5 15h3M3 16h5M3 17h5M3 18h5M3 19h6M23 19h3M4 20h6M23 20h3M27 20h1M4 21h6M22 21h6M5 22h5M21 22h6M5 23h4M20 23h7M6 24h3M21 24h5M7 25h1M21 25h4M22 26h2" />
<path stroke="#e1e1e1" d="M10 4h1M8 5h3M23 5h1M8 6h3M23 6h1M6 7h6M22 7h3M5 8h7M22 8h5M5 9h6M21 9h6M4 10h6M22 10h6M4 11h5M23 11h5M4 12h5M23 12h5M3 13h5M24 13h4M3 14h2M24 14h5M24 15h5M24 16h5M24 17h5M26 18h3M10 23h2M10 24h10M9 25h11M9 26h12M10 27h11M12 28h8" />
<path stroke="#b4010d" d="M11 4h1M11 5h1M22 5h1M11 6h1M22 6h1M12 7h1M21 7h1M21 8h1M5 14h3M3 15h2M24 18h2M27 19h2M19 23h1M9 24h1M20 24h1M26 24h1M8 25h1M20 25h1M21 26h1M21 27h1" />
<path stroke="#bbbbbb" d="M24 5h1M6 6h2M24 6h2M5 7h1M25 7h2M27 8h1M4 9h1M11 9h2M27 9h1M10 10h1M21 10h1M28 10h1M3 11h1M9 11h1M22 11h1M28 11h1M3 12h1M9 12h1M22 12h1M28 12h1M2 13h1M8 13h1M23 13h1M28 13h2M2 14h1M23 14h1M29 14h1M23 15h1M29 15h1M23 16h1M29 16h1M23 17h1M29 17h1M29 18h1M11 22h1M12 23h7M8 27h2M10 28h2M20 28h1M13 29h5" />
<path stroke="#90160a" d="M12 8h1M13 9h8M8 14h1M2 15h1M8 15h1M8 16h1M8 17h1M23 18h1M9 19h1M29 19h1M29 20h1M10 21h1M10 22h1M20 22h1M28 22h1M27 23h1M27 24h1M26 25h1M8 26h1M21 28h1" />
<path stroke="#c3010e" d="M26 19h1M9 23h1" />
<path stroke="#ff1f2f" d="M26 20h1" />
</svg>