<svg xmlns="http://www.w3.org/2000/svg" viewBox="0 -0.5 32 32" shape-rendering="crispEdges">
<metadata>Made with Pixels to Svg https://codepen.io/shshaw/pen/XbxvNj</metadata>
<path stroke="#000000" d="M8 3h5M6 4h2M13 4h2M5 5h1M15 5h1M16 6h1M4 7h1M6 7h1M11 7h1M17 7h1M4 8h1M6 8h1M11 8h1M17 8h1M4 9h1M17 9h1M1 10h1M17 10h1M26 10h1M2 11h1M17 11h1M25 11h1M27 11h1M4 12h1M17 12h1M25 12h1M28 12h1M5 13h1M16 13h1M25 13h1M29 13h1M6 14h1M15 14h1M23 14h2M29 14h1M5 15h1M15 15h1M20 15h3M29 15h2M4 16h1M16 16h4M30 16h1M4 17h1M30 17h1M3 18h1M30 18h1M2 19h1M30 19h1M2 20h1M30 20h1M2 21h1M30 21h1M2 22h1M30 22h1M2 23h1M30 23h1M3 24h1M29 24h1M3 25h2M28 25h2M4 26h2M27 26h2M5 27h3M26 27h2M7 28h19" />
<path stroke="#f1d041" d="M8 4h5M6 5h3M5 6h2M5 7h1M5 8h1M5 9h4M26 11h1M26 12h2M6 13h1M26 13h3M12 14h3M25 14h1M27 14h2M14 15h1M23 15h1M28 15h1M5 16h1M15 16h1M20 16h1M28 16h2M16 17h2M28 17h2M4 18h1M28 18h2M3 19h2M11 19h2M27 19h3M3 20h2M10 20h1M27 20h3M3 21h2M9 21h1M27 21h3M3 22h1M9 22h1M19 22h2M27 22h3M3 23h2M10 23h2M17 23h2M26 23h4M4 24h2M12 24h5M25 24h4M5 25h2M23 25h5M6 26h4M22 26h5M8 27h18" />
<path stroke="#ffda44" d="M9 5h6M7 6h9M7 7h4M12 7h5M7 8h4M12 8h5M9 9h8M9 10h8M9 11h8M9 12h8M7 13h9M7 14h5M26 14h1M6 15h8M24 15h4M6 16h9M21 16h7M5 17h11M18 17h10M5 18h23M5 19h6M13 19h14M5 20h5M11 20h16M5 21h4M10 21h17M4 22h5M10 22h9M21 22h6M5 23h5M12 23h5M19 23h7M6 24h6M17 24h8M7 25h16M10 26h12" />
<path stroke="#ff4225" d="M2 10h4M5 11h3" />
<path stroke="#ff6927" d="M6 10h3M8 11h1" />
<path stroke="#cc3720" d="M3 11h2M5 12h4" />
</svg>