<svg xmlns="http://www.w3.org/2000/svg" viewBox="0 -0.5 32 32" shape-rendering="crispEdges">
<metadata>Made with Pixels to Svg https://codepen.io/shshaw/pen/XbxvNj</metadata>
<path stroke="#000000" d="M19 3h5M17 4h2M24 4h2M16 5h1M26 5h1M15 6h1M14 7h1M20 7h1M25 7h1M27 7h1M14 8h1M20 8h1M25 8h1M27 8h1M14 9h1M27 9h1M5 10h1M14 10h1M30 10h1M4 11h1M6 11h1M14 11h1M29 11h1M3 12h1M6 12h1M14 12h1M27 12h1M2 13h1M6 13h1M15 13h1M26 13h1M2 14h1M7 14h2M16 14h1M25 14h1M1 15h2M9 15h3M16 15h1M26 15h1M1 16h1M12 16h4M27 16h1M1 17h1M27 17h1M1 18h1M28 18h1M1 19h1M29 19h1M1 20h1M29 20h1M1 21h1M29 21h1M1 22h1M29 22h1M1 23h1M29 23h1M2 24h1M28 24h1M2 25h2M27 25h2M3 26h2M26 26h2M4 27h2M24 27h3M6 28h19" />
<path stroke="#f1d041" d="M19 4h5M23 5h3M25 6h2M26 7h1M26 8h1M23 9h4M5 11h1M4 12h2M3 13h3M25 13h1M3 14h2M6 14h1M17 14h3M3 15h1M8 15h1M17 15h1M2 16h2M11 16h1M16 16h1M26 16h1M2 17h2M14 17h2M2 18h2M27 18h1M2 19h3M19 19h2M27 19h2M2 20h3M21 20h1M27 20h2M2 21h3M22 21h1M27 21h2M2 22h3M11 22h2M22 22h1M28 22h1M2 23h4M13 23h2M20 23h2M27 23h2M3 24h4M15 24h5M26 24h2M4 25h5M25 25h2M5 26h5M22 26h4M6 27h18" />
<path stroke="#ffda44" d="M17 5h6M16 6h9M15 7h5M21 7h4M15 8h5M21 8h4M15 9h8M15 10h8M15 11h8M15 12h8M16 13h9M5 14h1M20 14h5M4 15h4M18 15h8M4 16h7M17 16h9M4 17h10M16 17h11M4 18h23M5 19h14M21 19h6M5 20h16M22 20h5M5 21h17M23 21h4M5 22h6M13 22h9M23 22h5M6 23h7M15 23h5M22 23h5M7 24h8M20 24h6M9 25h16M10 26h12" />
<path stroke="#ff6927" d="M23 10h3M23 11h1" />
<path stroke="#ff4225" d="M26 10h4M24 11h3" />
<path stroke="#cc3720" d="M27 11h2M23 12h4" />
</svg>