<svg xmlns="http://www.w3.org/2000/svg" viewBox="0 -0.5 32 32" shape-rendering="crispEdges">
<metadata>Made with Pixels to Svg https://codepen.io/shshaw/pen/XbxvNj</metadata>
<path stroke="#000000" d="M14 1h3M13 2h1M17 2h1M13 3h1M17 3h1M11 4h2M18 4h2M10 5h1M20 5h1M9 6h1M21 6h1M8 7h1M22 7h1M8 8h1M22 8h1M8 9h1M22 9h1M8 10h1M22 10h1M8 11h1M22 11h1M8 12h1M22 12h1M9 13h1M21 13h1M10 14h1M20 14h1M10 15h1M20 15h1M9 16h1M21 16h1M8 17h1M22 17h1M6 18h2M23 18h2M5 19h1M25 19h1M4 20h1M26 20h1M4 21h1M26 21h1M4 22h1M26 22h1M5 23h1M25 23h1M5 24h1M25 24h1M6 25h1M24 25h1M6 26h1M24 26h1M7 27h1M23 27h1M8 28h1M22 28h1M9 29h13" />
<path stroke="#ff4225" d="M14 2h1M16 2h1" />
<path stroke="#ff6927" d="M15 2h1" />
<path stroke="#ab8c2c" d="M14 3h3M14 23h1M16 23h1M15 24h1M14 25h1M16 25h1" />
<path stroke="#f1d041" d="M13 4h5M11 5h9M10 6h11M9 7h3M19 7h3M9 8h1M21 8h1M9 11h1M21 11h1M9 12h1M21 12h1M10 13h2M19 13h2M11 14h3M17 14h3M11 15h9M10 16h11M9 17h5M17 17h5M8 18h3M20 18h3M6 19h2M14 19h3M23 19h2M5 20h2M13 20h1M17 20h1M24 20h2M5 21h1M12 21h1M18 21h1M25 21h1M5 22h1M11 22h1M19 22h1M25 22h1M10 23h1M20 23h1M6 24h1M24 24h1M7 25h1M23 25h1M7 26h2M22 26h2M8 27h2M21 27h2M9 28h3M19 28h3" />
<path stroke="#ffda44" d="M12 7h7M10 8h11M9 9h13M9 10h13M10 11h11M10 12h11M12 13h7M14 14h3M14 17h3M11 18h9M8 19h6M17 19h6M7 20h6M14 20h3M18 20h6M6 21h6M13 21h5M19 21h6M6 22h5M12 22h7M20 22h5M6 23h4M11 23h3M15 23h1M17 23h3M21 23h4M7 24h8M16 24h8M8 25h6M15 25h1M17 25h6M9 26h13M10 27h11M12 28h7" />
</svg>