<svg xmlns="http://www.w3.org/2000/svg" viewBox="0 -0.5 32 32" shape-rendering="crispEdges">
<metadata>Made with Pixels to Svg https://codepen.io/shshaw/pen/XbxvNj</metadata>
<path stroke="#a88f01" d="M13 2h5M11 3h2M18 3h2M10 4h1M20 4h1M9 5h1M21 5h1M8 6h1M22 6h1M8 7h1M22 7h1M8 8h1M22 8h1M8 9h1M22 9h1M8 10h1M22 10h1M8 11h1M22 11h1M9 12h1M21 12h1M10 13h1M20 13h1M10 14h1M20 14h1M9 15h1M21 15h1M8 16h1M22 16h1M7 17h1M23 17h1M5 18h2M24 18h2M4 19h1M26 19h1M4 20h1M26 20h1M4 21h1M26 21h1M5 22h1M25 22h1M5 23h1M25 23h1M6 24h1M24 24h1M6 25h1M24 25h1M7 26h1M23 26h1M8 27h1M22 27h1M9 28h13" />
<path stroke="#ecd300" d="M13 3h5M18 4h2M20 5h1M21 6h1M13 10h1M17 10h1M13 12h5M11 14h1M19 14h1M10 15h11M9 16h2M20 16h2M7 18h1M23 18h1M5 19h2M24 19h2M5 20h1M25 20h1M5 21h1M25 21h1M6 23h1M24 23h1M7 25h1M23 25h1M8 26h2M21 26h2M9 27h13" />
<path stroke="#ffdd02" d="M11 4h7M10 5h10M9 6h12M9 7h3M13 7h5M19 7h3M9 8h3M13 8h5M19 8h3M9 9h13M9 10h4M18 10h4M9 11h3M19 11h3M10 12h3M18 12h3M11 13h9M12 14h7M11 16h9M8 17h15M8 18h15M7 19h17M6 20h19M6 21h19M6 22h19M7 23h17M7 24h17M8 25h15M10 26h11" />
<path stroke="#000000" d="M12 7h1M18 7h1M12 8h1M18 8h1" />
<path stroke="#f97200" d="M14 10h2" />
<path stroke="#f14e12" d="M16 10h1M13 11h4" />
<path stroke="#c13f0f" d="M12 11h1M17 11h2" />
</svg>