<svg xmlns="http://www.w3.org/2000/svg" viewBox="0 -0.5 32 32" shape-rendering="crispEdges">
<metadata>Made with Pixels to Svg https://codepen.io/shshaw/pen/XbxvNj</metadata>
<path stroke="#a88f01" d="M20 3h4M18 4h2M24 4h2M17 5h1M26 5h1M16 6h1M27 6h1M15 7h1M27 7h1M15 8h1M27 8h1M15 9h1M27 9h1M6 10h1M15 10h1M4 11h2M7 11h1M15 11h1M3 12h1M7 12h1M15 12h1M3 13h1M7 13h1M16 13h1M27 13h1M2 14h1M8 14h2M17 14h1M26 14h1M2 15h1M10 15h3M17 15h1M27 15h1M2 16h1M13 16h4M28 16h1M2 17h1M28 17h1M2 18h1M29 18h1M2 19h1M29 19h1M2 20h1M29 20h1M2 21h1M29 21h1M3 22h1M29 22h1M3 23h1M28 23h1M3 24h1M28 24h1M4 25h1M27 25h1M5 26h1M26 26h1M6 27h1M25 27h1M7 28h18" />
<path stroke="#ecd300" d="M20 4h4M24 5h2M26 6h1M6 11h1M4 12h3M6 13h1M26 13h1M7 14h1M18 14h3M9 15h1M18 15h1M12 16h1M17 16h1M27 16h1M15 17h2M28 18h1M20 19h2M28 19h1M22 20h1M23 21h1M12 22h2M23 22h1M14 23h2M21 23h2M16 24h5M5 25h1M26 25h1M6 26h3M23 26h3M7 27h18" />
<path stroke="#ffdd02" d="M18 5h6M17 6h9M16 7h5M22 7h4M16 8h5M22 8h4M16 9h8M26 9h1M16 10h8M16 11h8M16 12h8M4 13h2M17 13h9M3 14h4M21 14h5M3 15h6M19 15h8M3 16h9M18 16h9M3 17h12M17 17h11M3 18h25M3 19h17M22 19h6M3 20h19M23 20h6M3 21h20M24 21h5M4 22h8M14 22h9M24 22h5M4 23h10M16 23h5M23 23h5M4 24h12M21 24h7M6 25h20M9 26h14" />
<path stroke="#000000" d="M21 7h1M26 7h1M21 8h1M26 8h1" />
<path stroke="#fee001" d="M24 9h2" />
<path stroke="#f97200" d="M24 10h3M24 11h1" />
<path stroke="#f14e12" d="M27 10h4M25 11h4" />
<path stroke="#c13f0f" d="M29 11h2M24 12h5" />
</svg>