<svg xmlns="http://www.w3.org/2000/svg" viewBox="0 -0.5 32 32" shape-rendering="crispEdges">
<metadata>Made with Pixels to Svg https://codepen.io/shshaw/pen/XbxvNj</metadata>
<path stroke="#f14e12" d="M14 1h1M16 1h1" />
<path stroke="#f97200" d="M15 1h1" />
<path stroke="#a88f01" d="M13 2h5M11 3h2M18 3h2M10 4h1M20 4h1M9 5h1M21 5h1M8 6h1M22 6h1M8 7h1M22 7h1M8 8h1M22 8h1M8 9h1M22 9h1M8 10h1M22 10h1M8 11h1M22 11h1M9 12h1M21 12h1M10 13h1M20 13h1M10 14h1M20 14h1M9 15h1M21 15h1M8 16h1M22 16h1M6 17h2M23 17h2M5 18h1M25 18h1M4 19h1M26 19h1M4 20h1M26 20h1M4 21h1M26 21h1M5 22h1M14 22h1M16 22h1M25 22h1M5 23h1M15 23h1M25 23h1M6 24h1M14 24h1M16 24h1M24 24h1M6 25h1M24 25h1M7 26h1M23 26h1M8 27h1M22 27h1M9 28h13" />
<path stroke="#ecd300" d="M13 3h5M11 4h9M10 5h11M9 6h3M19 6h3M9 7h1M21 7h1M9 10h1M21 10h1M9 11h1M21 11h1M10 12h2M19 12h2M11 13h3M17 13h3M11 14h9M10 15h11M9 16h1M21 16h1M6 18h2M14 18h3M23 18h2M5 19h2M13 19h1M17 19h1M24 19h2M5 20h1M12 20h1M18 20h1M25 20h1M5 21h1M11 21h1M19 21h1M25 21h1M10 22h1M20 22h1M6 23h1M24 23h1M7 24h1M23 24h1M7 25h2M22 25h2M8 26h2M21 26h2M9 27h3M19 27h3" />
<path stroke="#ffdd02" d="M12 6h7M10 7h11M9 8h13M9 9h13M10 10h11M10 11h11M12 12h7M14 13h3M10 16h11M8 17h15M8 18h6M17 18h6M7 19h6M14 19h3M18 19h6M6 20h6M13 20h5M19 20h6M6 21h5M12 21h7M20 21h5M6 22h4M11 22h3M15 22h1M17 22h3M21 22h4M7 23h8M16 23h8M8 24h6M15 24h1M17 24h6M9 25h13M10 26h11M12 27h7" />
</svg>