<svg xmlns="http://www.w3.org/2000/svg" viewBox="0 -0.5 32 32" shape-rendering="crispEdges">
<metadata>Made with Pixels to Svg https://codepen.io/shshaw/pen/XbxvNj</metadata>
<path stroke="#a88f01" d="M8 3h4M6 4h2M12 4h2M5 5h1M14 5h1M4 6h1M15 6h1M4 7h1M16 7h1M4 8h1M16 8h1M4 9h1M16 9h1M16 10h1M25 10h1M16 11h1M24 11h1M26 11h2M16 12h1M24 12h1M28 12h1M4 13h1M15 13h1M24 13h1M28 13h1M5 14h1M14 14h1M22 14h2M29 14h1M4 15h1M14 15h1M19 15h3M29 15h1M3 16h1M15 16h4M29 16h1M3 17h1M29 17h1M2 18h1M29 18h1M2 19h1M29 19h1M2 20h1M29 20h1M2 21h1M29 21h1M2 22h1M28 22h1M3 23h1M28 23h1M3 24h1M28 24h1M4 25h1M27 25h1M5 26h1M26 26h1M6 27h1M25 27h1M7 28h18" />
<path stroke="#ecd300" d="M8 4h4M6 5h2M5 6h1M25 11h1M25 12h3M5 13h1M25 13h1M11 14h3M24 14h1M13 15h1M22 15h1M4 16h1M14 16h1M19 16h1M15 17h2M3 18h1M3 19h1M10 19h2M9 20h1M8 21h1M8 22h1M18 22h2M9 23h2M16 23h2M11 24h5M5 25h1M26 25h1M6 26h3M23 26h3M7 27h18" />
<path stroke="#ffdd02" d="M8 5h6M6 6h9M6 7h4M11 7h5M6 8h4M11 8h5M5 9h1M8 9h8M8 10h8M8 11h8M8 12h8M6 13h9M26 13h2M6 14h5M25 14h4M5 15h8M23 15h6M5 16h9M20 16h9M4 17h11M17 17h12M4 18h25M4 19h6M12 19h17M3 20h6M10 20h19M3 21h5M9 21h20M3 22h5M9 22h9M20 22h8M4 23h5M11 23h5M18 23h10M4 24h7M16 24h12M6 25h20M9 26h14" />
<path stroke="#000000" d="M5 7h1M10 7h1M5 8h1M10 8h1" />
<path stroke="#fee001" d="M6 9h2" />
<path stroke="#f14e12" d="M1 10h4M3 11h4" />
<path stroke="#f97200" d="M5 10h3M7 11h1" />
<path stroke="#c13f0f" d="M1 11h2M3 12h5" />
</svg>