<svg xmlns="http://www.w3.org/2000/svg" viewBox="0 -0.5 32 32" shape-rendering="crispEdges">
<metadata>Made with Pixels to Svg https://codepen.io/shshaw/pen/XbxvNj</metadata>
<path stroke="#c90000" d="M12 2h8M11 3h1M20 3h2M22 4h1M13 8h6M19 9h1M8 15h1M2 16h1M8 16h1M2 17h1M8 17h1M2 18h1M8 18h1M2 19h1M9 19h1M22 19h1M3 20h1M9 20h1M22 20h1M28 20h1M3 21h1M10 21h1M21 21h1M28 21h1M4 22h1M20 22h1M27 22h1M4 23h1M27 23h1M5 24h1M26 24h1M6 25h1M25 25h1M7 26h1M24 26h1M22 27h2" />
<path stroke="#881d00" d="M10 3h1M23 4h1M12 8h1M20 9h1M8 14h1M2 15h1M23 18h1M29 19h1M10 22h1M19 22h1M8 26h1M21 28h1" />
<path stroke="#e20000" d="M12 3h8M12 4h10M12 5h10M12 6h10M13 7h8M19 8h2M5 15h3M3 16h5M3 17h5M3 18h5M3 19h6M23 19h3M4 20h5M23 20h5M4 21h6M22 21h6M5 22h5M21 22h6M5 23h4M20 23h7M6 24h3M21 24h5M7 25h1M21 25h4M22 26h2" />
<path stroke="#bcbcbc" d="M8 4h2M7 5h1M24 5h1M6 6h1M25 6h1M5 7h1M26 7h1M4 8h1M27 8h1M4 9h1M11 9h2M27 9h1M3 10h1M10 10h1M21 10h1M28 10h1M3 11h1M9 11h1M22 11h1M28 11h1M2 12h1M9 12h1M22 12h1M29 12h1M2 13h1M8 13h1M23 13h1M29 13h1M2 14h1M23 14h1M29 14h1M23 15h1M29 15h1M23 16h1M29 16h1M23 17h1M29 17h1M29 18h1M11 22h2M13 23h6M8 27h2M10 28h2M20 28h1M12 29h8" />
<path stroke="#e2e2e2" d="M10 4h1M8 5h3M23 5h1M7 6h4M23 6h2M6 7h6M22 7h4M5 8h7M22 8h5M5 9h6M21 9h6M4 10h6M22 10h6M4 11h5M23 11h5M3 12h6M23 12h6M3 13h5M24 13h5M3 14h2M24 14h5M24 15h5M24 16h5M24 17h5M26 18h3M10 23h3M10 24h10M9 25h11M9 26h12M10 27h11M12 28h8" />
<path stroke="#aa1d00" d="M11 4h1M11 5h1M22 5h1M11 6h1M22 6h1M12 7h1M21 7h1M21 8h1M5 14h3M3 15h2M24 18h2M26 19h3M9 23h1M19 23h1M9 24h1M20 24h1M8 25h1M20 25h1M21 26h1M21 27h1" />
</svg>